<?xml version="1.0" standalone="no"?>
<!DOCTYPE svg PUBLIC "-//W3C//DTD SVG 20010904//EN"
 "http://www.w3.org/TR/2001/REC-SVG-20010904/DTD/svg10.dtd">
<svg version="1.0" xmlns="http://www.w3.org/2000/svg"
 width="1280.000000pt" height="814.000000pt" viewBox="0 0 1280.000000 814.000000"
 preserveAspectRatio="xMidYMid meet">
<metadata>
Created by potrace 1.15, written by Peter Selinger 2001-2017
</metadata>
<g transform="translate(0.000000,814.000000) scale(0.100000,-0.100000)"
fill="#000000" stroke="none">
<path d="M5295 8127 c-243 -81 -584 -454 -965 -1057 -50 -80 -99 -156 -108
-169 -13 -17 -58 -37 -167 -75 -190 -66 -482 -187 -785 -323 -289 -131 -1036
-505 -1182 -592 -291 -174 -551 -414 -788 -729 -364 -483 -682 -1217 -826
-1902 -26 -124 -33 -143 -88 -235 -121 -204 -206 -405 -206 -489 0 -92 59 -98
213 -24 88 43 175 95 672 400 515 316 809 457 1051 504 100 19 256 18 352 -2
42 -9 159 -45 259 -80 221 -79 346 -111 478 -125 153 -16 440 12 474 46 14 14
13 17 -9 39 -14 14 -77 57 -140 96 -159 100 -185 126 -142 148 39 21 112 22
218 5 79 -13 162 -18 304 -17 172 1 210 4 323 27 195 41 381 107 572 201 282
140 462 271 601 438 18 21 35 27 115 37 765 100 1415 69 2089 -99 726 -181
1396 -528 1951 -1010 326 -283 629 -662 629 -785 0 -35 -11 -52 -212 -345
-227 -331 -278 -481 -257 -759 23 -303 93 -602 181 -773 67 -131 133 -167 208
-116 58 40 70 79 85 266 20 237 41 290 162 392 89 75 142 148 232 318 92 175
105 195 147 218 44 24 120 15 284 -34 188 -57 277 -78 408 -97 204 -29 293
-71 523 -241 77 -57 144 -104 148 -104 4 0 33 -15 64 -34 l57 -34 36 49 c19
27 40 64 45 83 21 75 -33 266 -123 436 -231 438 -660 767 -1163 894 -88 22
-127 29 -262 52 -36 5 -21 -14 -563 734 -593 819 -911 1269 -1187 1680 -171
254 -286 393 -494 595 -568 552 -1261 1008 -1784 1175 -310 98 -638 165 -940
190 -408 34 -434 39 -484 95 -85 97 -110 321 -65 580 29 173 64 247 179 380
99 116 112 145 74 165 -32 18 -149 22 -194 7z"/>
</g>
</svg>
