<?xml version="1.0" standalone="no"?>
<!DOCTYPE svg PUBLIC "-//W3C//DTD SVG 20010904//EN"
 "http://www.w3.org/TR/2001/REC-SVG-20010904/DTD/svg10.dtd">
<svg version="1.0" xmlns="http://www.w3.org/2000/svg"
 width="640.000000pt" height="1280.000000pt" viewBox="0 0 640.000000 1280.000000"
 preserveAspectRatio="xMidYMid meet">
<metadata>
Created by potrace 1.15, written by Peter Selinger 2001-2017
</metadata>
<g transform="translate(0.000000,1280.000000) scale(0.100000,-0.100000)"
fill="#000000" stroke="none">
<path d="M2739 12743 c-100 -129 -118 -189 -128 -409 -5 -110 -10 -146 -24
-167 -10 -15 -61 -59 -114 -98 -53 -39 -115 -88 -137 -108 -23 -20 -65 -55
-94 -76 -29 -22 -69 -60 -87 -84 -32 -40 -144 -131 -163 -131 -5 0 -9 29 -10
64 -3 92 58 257 124 335 41 50 19 50 -32 0 -58 -57 -135 -168 -183 -266 -77
-155 -127 -213 -274 -316 -226 -161 -241 -169 -304 -176 -57 -6 -59 -7 -81
-51 -19 -39 -22 -60 -22 -166 0 -115 -1 -122 -24 -146 -14 -13 -84 -50 -156
-82 -125 -56 -132 -57 -150 -41 -18 16 -20 15 -50 -18 -53 -60 -103 -68 -331
-53 -123 9 -127 8 -138 -12 -9 -17 -5 -35 21 -99 32 -76 33 -81 32 -218 -1
-84 -7 -168 -17 -210 -20 -93 -15 -98 82 -91 53 4 91 1 130 -10 81 -24 187
-15 281 24 41 17 120 49 175 72 74 31 108 40 131 35 22 -4 33 -1 37 8 8 21
133 52 367 91 267 45 399 61 434 52 32 -8 147 -125 185 -189 14 -23 35 -69 47
-102 12 -33 29 -61 37 -63 9 -2 42 29 80 75 108 131 171 153 430 153 127 0
180 4 245 20 46 11 88 20 94 20 6 0 36 -27 68 -60 79 -82 119 -82 134 1 11 60
21 66 161 94 72 14 203 41 292 60 89 19 173 35 188 35 44 0 85 -36 85 -73 0
-69 -141 -280 -275 -412 -110 -108 -173 -165 -184 -165 -6 0 -14 -6 -18 -13
-4 -7 -82 -69 -173 -137 -332 -249 -562 -433 -653 -522 -27 -27 -55 -48 -62
-48 -21 0 -128 -59 -158 -88 -27 -26 -28 -30 -22 -88 5 -45 2 -71 -9 -98 -22
-52 -85 -126 -107 -126 -11 0 -43 -13 -72 -30 -41 -23 -64 -48 -111 -116 -52
-77 -57 -89 -47 -110 14 -32 14 -34 -4 -34 -43 0 -192 -178 -247 -296 -29 -61
-33 -83 -39 -184 -6 -104 -10 -124 -48 -218 -40 -97 -43 -111 -56 -270 -7 -92
-19 -197 -25 -233 -11 -63 -10 -72 19 -165 46 -152 60 -218 70 -359 6 -72 18
-155 27 -185 39 -132 139 -368 185 -437 74 -110 109 -172 134 -238 26 -68 33
-72 148 -74 51 -1 67 -4 67 -15 0 -8 -11 -57 -25 -108 -28 -105 -30 -135 -13
-175 11 -24 44 -57 58 -58 2 0 6 34 7 75 4 98 19 188 34 207 23 27 29 -10 19
-113 -12 -125 -12 -187 -1 -180 4 3 12 68 16 144 11 217 26 208 40 -23 9 -153
25 -142 25 17 0 81 4 139 10 143 6 4 10 -12 10 -42 0 -26 7 -73 15 -103 8 -30
15 -72 15 -93 0 -25 5 -40 15 -44 9 -3 18 -4 20 -1 2 2 -5 46 -15 98 -35 170
-24 196 55 136 25 -20 88 -56 139 -80 149 -72 172 -115 276 -526 82 -325 154
-554 246 -787 35 -89 64 -168 64 -174 0 -7 13 -35 29 -63 36 -64 157 -341 167
-381 4 -16 28 -70 54 -120 114 -217 360 -707 393 -785 291 -686 288 -1198 -11
-1620 -166 -235 -384 -360 -736 -424 -186 -34 -345 -50 -440 -43 -252 18 -509
189 -547 365 -7 31 -19 67 -27 80 -13 19 -13 31 -2 76 10 41 10 58 0 75 -9 19
-9 26 4 40 19 21 21 52 4 69 -8 8 -3 21 23 52 135 161 182 193 288 193 64 0
183 -26 208 -46 7 -5 13 -22 13 -37 0 -15 9 -35 20 -45 14 -13 17 -25 13 -46
-4 -20 0 -36 12 -49 16 -18 16 -20 -6 -49 -18 -25 -20 -33 -10 -45 15 -17 7
-36 -15 -36 -8 0 -17 -13 -21 -31 -5 -28 -9 -30 -35 -25 -19 4 -38 0 -55 -11
-24 -16 -26 -16 -42 4 -9 12 -25 23 -36 25 -41 7 -32 74 20 142 40 53 42 66
17 89 -55 50 -181 -24 -242 -142 -72 -143 38 -294 244 -332 122 -23 254 18
341 106 111 111 165 330 119 486 -39 133 -131 252 -221 285 -26 9 -74 33 -105
52 -51 31 -72 36 -175 49 -88 10 -135 11 -185 3 -37 -5 -84 -10 -105 -10 -38
0 -54 -11 -159 -99 -14 -12 -31 -16 -52 -13 -28 4 -34 0 -49 -29 -23 -43 -89
-109 -131 -131 -23 -13 -32 -24 -32 -43 0 -36 -21 -82 -62 -136 -27 -35 -37
-59 -43 -104 -4 -33 -20 -99 -36 -149 l-29 -89 21 -23 c14 -15 23 -42 28 -81
4 -32 10 -64 15 -71 4 -8 1 -23 -9 -38 -16 -25 -16 -27 8 -53 14 -14 31 -39
40 -56 20 -42 45 -135 44 -164 -1 -17 5 -29 20 -36 36 -18 64 -47 83 -86 10
-19 26 -41 34 -48 9 -8 16 -21 16 -31 0 -23 32 -50 59 -50 12 0 43 -16 68 -35
25 -19 50 -35 56 -35 5 0 35 -20 65 -45 40 -34 63 -45 88 -45 18 0 48 -6 66
-14 18 -8 63 -26 99 -41 45 -18 70 -34 77 -50 11 -24 12 -24 49 -9 30 13 47
14 92 5 30 -6 74 -11 98 -11 36 0 50 -6 75 -31 18 -18 38 -28 47 -25 9 2 36
12 61 21 26 10 57 14 76 10 45 -8 86 12 79 39 -6 19 -5 19 13 -3 17 -22 25
-23 70 -18 47 5 53 4 70 -20 l18 -25 55 27 c73 38 312 117 318 106 3 -4 16
-13 29 -20 29 -15 64 4 86 47 20 39 46 59 87 66 20 4 83 29 139 56 55 28 110
50 120 50 11 0 22 -11 29 -30 13 -39 51 -41 88 -4 23 23 25 31 19 75 -9 67 7
98 105 194 l80 80 29 -35 c28 -34 30 -35 57 -20 l28 16 0 120 0 120 32 37 c18
20 48 70 68 112 20 41 41 75 46 75 5 0 20 -7 34 -16 19 -12 28 -13 46 -4 20
11 21 16 13 74 -4 33 -8 84 -8 111 -1 67 43 324 60 352 8 13 29 25 50 29 47 9
51 25 20 78 -36 62 -56 147 -56 239 0 100 17 136 65 137 62 1 56 38 -20 120
-67 73 -83 104 -94 182 -10 71 -7 85 19 93 9 3 25 14 35 25 17 19 16 22 -48
82 -68 65 -89 108 -103 213 -6 38 -4 42 32 65 21 14 39 31 42 37 2 7 -19 23
-50 36 -85 38 -156 140 -166 237 -4 42 -1 51 28 83 17 20 30 44 28 54 -2 10
-29 31 -62 48 -74 37 -97 68 -107 140 -9 68 2 110 35 136 38 30 32 47 -28 73
-61 27 -92 65 -126 158 -12 32 -28 61 -35 66 -21 11 -7 52 17 52 25 0 68 44
68 69 0 14 -13 24 -49 36 -27 9 -55 23 -62 31 -23 28 -79 188 -79 227 0 26 8
49 25 71 33 44 32 53 -12 73 -46 22 -83 88 -83 148 1 58 33 121 75 146 42 25
44 42 9 66 -91 64 -96 73 -82 180 15 116 35 143 107 143 16 0 35 7 42 16 11
13 11 21 -3 44 -9 16 -14 31 -10 34 13 13 42 5 57 -16 17 -25 195 -560 195
-588 0 -10 7 -23 15 -30 39 -33 321 26 457 95 359 181 720 720 857 1275 49
201 63 323 64 540 0 269 -27 459 -83 588 l-19 42 -121 0 c-66 0 -202 -10 -301
-21 -122 -15 -191 -19 -212 -13 -29 9 -32 14 -43 77 -15 78 -5 160 23 210 12
20 40 43 77 62 79 41 82 51 41 115 -59 92 -59 167 2 303 56 127 137 203 243
230 77 20 81 32 37 106 -69 116 -82 201 -52 330 25 106 78 192 167 275 43 40
78 78 78 84 0 7 -22 28 -50 48 -91 65 -130 204 -100 356 32 163 111 219 209
147 23 -16 47 -29 52 -27 5 2 -4 24 -21 49 -31 47 -69 72 -161 104 -91 31
-107 72 -108 268 -1 120 6 144 64 228 l38 53 -28 21 c-123 89 -146 118 -191
245 -48 136 -33 209 52 239 49 17 114 2 151 -35 13 -13 26 -24 28 -24 12 0 3
48 -15 77 -28 46 -56 60 -138 67 -231 20 -400 174 -362 331 6 28 12 66 13 85
l2 35 -105 35 c-123 41 -162 64 -220 126 -67 73 -85 122 -83 232 2 91 1 93
-23 102 -14 6 -44 10 -67 10 -83 1 -208 68 -319 169 -81 75 -111 131 -102 190
8 50 -8 76 -37 60 -11 -5 -17 -14 -14 -20 4 -5 11 -7 16 -4 14 9 11 0 -12 -40
-16 -26 -26 -34 -38 -29 -9 3 -37 12 -63 19 -33 9 -73 35 -133 86 l-87 73 6
50 c13 113 18 101 -44 101 -55 0 -55 0 -58 33 -4 40 -18 41 -109 7 -91 -35
-174 -43 -193 -20 -12 15 -10 24 19 77 25 45 30 63 22 71 -9 9 -16 8 -31 -1
-11 -6 -32 -12 -47 -12 -25 0 -26 1 -8 13 28 21 11 33 -55 40 -88 10 -120 29
-120 74 0 13 -10 27 -22 34 -22 12 -32 5 -58 -40 -4 -8 -27 -17 -50 -20 -41
-6 -44 -9 -79 -76 -44 -85 -75 -107 -178 -130 -43 -9 -110 -32 -148 -51 -39
-19 -77 -34 -86 -34 -9 0 -35 20 -58 45 -36 40 -41 50 -43 97 -3 103 11 146
83 250 36 54 45 88 21 88 -5 0 -29 -26 -53 -57z m-300 -7203 c-12 -129 -16
-145 -34 -130 -18 15 -19 55 -4 134 26 140 50 137 38 -4z"/>
</g>
</svg>
