<?xml version="1.0" standalone="no"?>
<!DOCTYPE svg PUBLIC "-//W3C//DTD SVG 20010904//EN"
 "http://www.w3.org/TR/2001/REC-SVG-20010904/DTD/svg10.dtd">
<svg version="1.0" xmlns="http://www.w3.org/2000/svg"
 width="1280.000000pt" height="867.000000pt" viewBox="0 0 1280.000000 867.000000"
 preserveAspectRatio="xMidYMid meet">
<metadata>
Created by potrace 1.15, written by Peter Selinger 2001-2017
</metadata>
<g transform="translate(0.000000,867.000000) scale(0.100000,-0.100000)"
fill="#000000" stroke="none">
<path d="M1099 8653 c-10 -12 -14 -52 -14 -152 0 -117 3 -147 24 -211 30 -92
30 -169 2 -245 -27 -72 -27 -79 10 -130 28 -39 30 -47 24 -98 -7 -52 -6 -56
20 -73 52 -36 65 -54 65 -87 0 -17 18 -79 40 -137 49 -128 60 -186 60 -312 0
-90 4 -109 45 -231 49 -147 94 -324 126 -497 11 -63 25 -137 30 -165 6 -32 6
-72 0 -110 -6 -33 -12 -103 -15 -155 -7 -120 -37 -279 -77 -401 -39 -120 -133
-316 -202 -422 -29 -45 -68 -110 -86 -144 -43 -81 -123 -176 -202 -242 -35
-29 -107 -94 -159 -145 -109 -105 -178 -160 -333 -263 -61 -40 -115 -83 -121
-95 -7 -14 -75 -59 -171 -113 -165 -93 -182 -110 -150 -146 27 -29 70 -32 206
-14 250 32 706 152 1129 296 276 93 405 118 461 89 10 -6 65 -81 122 -168 177
-269 385 -535 610 -782 53 -58 97 -110 97 -116 0 -13 -32 -24 -70 -24 -51 0
-106 -23 -142 -60 -75 -75 -43 -133 116 -210 129 -62 214 -83 343 -83 83 -1
105 2 115 15 12 14 24 8 113 -61 l101 -77 -9 -44 c-4 -25 -22 -102 -38 -171
-26 -107 -38 -139 -80 -205 -54 -87 -58 -105 -29 -134 25 -25 54 -25 325 -5
352 26 540 18 640 -29 52 -24 180 -114 173 -122 -3 -2 -173 -29 -379 -59 -206
-30 -385 -57 -399 -61 -68 -16 -57 -53 25 -83 101 -38 171 -43 440 -32 138 6
380 16 538 21 268 10 466 26 611 50 60 10 203 3 211 -10 4 -7 -145 -30 -330
-50 -243 -27 -493 -41 -835 -47 l-375 -7 90 -18 c187 -38 702 -53 960 -27 143
14 402 58 640 109 174 37 195 40 260 31 140 -19 308 -24 420 -11 92 10 149 26
345 92 291 99 482 174 625 245 88 45 126 71 190 132 45 43 116 105 159 139 75
60 79 62 137 62 55 0 59 2 59 23 0 12 -10 42 -21 67 -28 62 -26 96 10 168 50
98 58 92 68 -50 7 -101 15 -112 90 -124 74 -11 73 -12 41 137 -28 127 -30 159
-9 159 26 0 40 -34 46 -114 8 -94 29 -140 71 -156 31 -12 81 -13 88 -2 3 5
-11 46 -29 93 -37 91 -47 177 -22 198 22 18 45 -17 66 -103 11 -42 27 -88 36
-102 35 -54 118 -82 145 -49 16 19 7 53 -30 112 -39 61 -41 119 -6 152 19 18
28 21 44 12 25 -13 42 -61 42 -117 0 -76 71 -134 166 -134 17 0 33 2 36 5 3 3
-6 34 -20 68 -14 34 -30 94 -35 133 -10 66 -9 72 11 92 23 23 31 56 35 147 1
46 6 60 17 60 15 0 16 -14 8 -125 -3 -43 -2 -45 22 -42 135 13 253 13 335 -2
130 -23 202 -21 277 8 35 14 95 34 133 45 109 32 176 79 345 244 295 289 509
436 970 667 164 81 211 103 310 142 25 10 25 10 -12 23 -117 40 -153 118 -108
238 53 142 205 224 310 168 140 -74 87 -255 -100 -339 l-65 -29 52 -11 c88
-19 226 21 386 113 44 25 120 61 170 81 51 20 122 54 158 75 98 59 145 50 120
-22 -6 -18 -9 -34 -6 -37 10 -10 139 23 325 83 254 82 309 96 388 96 52 0 77
-5 120 -28 67 -34 94 -69 96 -120 1 -50 -27 -102 -124 -233 -115 -155 -124
-173 -185 -324 -67 -169 -68 -170 -106 -151 -15 8 -42 15 -59 15 -35 0 -143
51 -180 86 -14 13 -45 30 -69 39 -24 8 -72 33 -107 55 -56 35 -73 40 -175 54
-178 23 -249 28 -249 17 0 -6 17 -13 38 -16 121 -20 208 -41 296 -72 121 -42
423 -192 454 -225 21 -24 22 -25 4 -41 -17 -15 -22 -14 -77 24 -151 102 -351
180 -567 223 -179 35 -198 38 -198 28 0 -19 27 -30 110 -42 261 -37 457 -109
623 -228 l77 -55 -20 -22 c-11 -12 -20 -29 -20 -38 0 -21 -7 -21 -26 -2 -9 8
-43 35 -77 59 -184 131 -369 201 -595 226 -101 11 -142 8 -142 -11 0 -15 15
-17 155 -28 158 -13 260 -38 383 -96 100 -48 168 -93 245 -164 49 -46 58 -70
32 -91 -13 -11 -20 -9 -43 12 -40 39 -163 115 -237 148 -144 65 -401 124 -441
102 -15 -9 -15 -11 7 -23 13 -7 69 -18 125 -26 194 -25 367 -91 482 -183 71
-57 75 -78 25 -119 -21 -17 -43 -31 -49 -31 -7 0 -35 15 -63 34 -94 64 -142
68 -248 24 -41 -17 -58 -20 -71 -11 -26 16 -20 37 13 43 25 5 11 12 -94 48
-69 23 -126 40 -128 38 -2 -2 19 -18 47 -36 52 -33 59 -44 36 -53 -18 -7 -96
11 -123 28 -31 21 -39 53 -16 70 17 13 16 14 -14 15 -18 0 -56 9 -85 20 -38
14 -47 16 -34 5 19 -14 17 -15 -22 -15 -23 0 -72 12 -109 26 -108 41 -124 45
-189 45 -34 -1 -84 6 -110 14 -36 11 -100 15 -236 15 -183 0 -189 -1 -270 -30
-93 -34 -180 -84 -285 -163 -77 -57 -214 -132 -231 -126 -22 8 19 40 188 146
154 97 177 115 195 151 18 39 22 42 59 42 60 0 168 20 194 36 12 8 22 21 22
29 0 22 -43 19 -92 -6 -23 -12 -78 -28 -122 -35 -45 -8 -83 -20 -85 -27 -11
-35 -189 -166 -330 -244 -34 -19 -51 -35 -51 -48 -1 -12 -33 -49 -79 -90 -43
-38 -77 -72 -75 -73 6 -7 168 60 203 84 48 33 59 30 63 -13 2 -21 8 -37 13
-37 6 1 28 5 50 8 22 3 47 2 55 -3 12 -9 10 -15 -13 -39 -15 -15 -27 -31 -27
-35 0 -4 22 -7 48 -7 57 0 69 -8 42 -27 -19 -14 -27 -43 -14 -56 4 -3 23 1 42
9 47 19 59 13 67 -35 6 -38 8 -39 32 -30 14 5 28 7 31 4 3 -2 7 -27 10 -55 2
-27 8 -50 12 -50 4 0 26 7 49 15 l41 14 0 -34 c0 -19 2 -35 4 -35 2 0 34 14
71 30 37 17 71 30 77 30 11 0 2 -88 -13 -127 -5 -15 -3 -26 10 -37 24 -21 53
-20 134 8 l67 23 0 -37 c0 -21 -5 -61 -10 -90 -6 -29 -9 -55 -7 -57 9 -8 108
30 161 62 32 19 60 34 62 33 8 -9 -79 -196 -98 -212 -31 -25 -91 -17 -149 20
-24 15 -45 28 -45 29 -1 0 4 29 12 65 7 35 12 66 10 67 -2 2 -47 -8 -101 -22
-53 -14 -99 -25 -101 -25 -2 0 -13 14 -23 31 -18 30 -18 32 0 92 10 34 19 64
19 67 0 3 -39 2 -87 -1 l-88 -6 -52 39 c-28 21 -81 71 -117 110 -56 58 -70 69
-90 64 -22 -5 -29 4 -81 94 -31 55 -63 100 -71 100 -8 0 -14 -4 -14 -9 0 -4
29 -66 65 -137 69 -139 178 -288 230 -314 17 -8 66 -51 110 -96 44 -44 105
-98 135 -118 67 -46 38 -39 -85 19 -127 61 -202 115 -293 209 -76 79 -106 129
-193 321 l-14 30 -3 -39 c-5 -61 26 -181 71 -269 68 -134 269 -321 436 -406
24 -13 130 -51 235 -86 283 -93 349 -129 349 -192 0 -37 -67 -96 -141 -123
-147 -55 -406 -106 -797 -155 -782 -98 -927 -122 -1119 -186 -135 -45 -461
-138 -541 -155 -199 -42 -284 -49 -610 -48 -320 1 -413 7 -710 49 -60 9 -238
20 -395 25 -157 5 -342 16 -412 25 -229 27 -541 91 -827 169 -81 22 -132 31
-145 26 -12 -4 -45 -11 -73 -15 -29 -4 -53 -10 -53 -15 0 -4 26 -14 58 -22 31
-9 161 -43 287 -76 408 -108 548 -131 990 -162 165 -11 491 -37 725 -57 294
-26 479 -37 600 -36 169 0 183 2 405 48 217 45 704 171 826 214 73 26 246 61
301 61 37 0 48 -5 64 -27 36 -50 36 -54 -2 -28 -46 31 -60 31 -136 -1 -198
-83 -465 -162 -635 -188 -82 -12 -92 -21 -34 -28 34 -4 49 -32 33 -59 -7 -11
-12 -23 -10 -25 3 -2 67 -31 143 -64 204 -89 361 -172 486 -255 60 -41 142
-91 182 -111 188 -96 336 -231 518 -474 83 -112 126 -180 112 -180 -5 0 -91
86 -192 190 -243 253 -445 421 -727 607 -111 73 -173 103 -367 178 -54 21
-131 59 -172 85 -64 41 -90 50 -186 69 -101 20 -114 20 -128 6 -22 -22 -2 -37
94 -70 682 -236 1300 -681 1824 -1316 81 -97 113 -121 136 -98 12 12 13 29 4
104 -42 375 -188 707 -439 995 -50 58 -129 151 -176 207 -95 114 -330 472
-317 483 15 14 171 39 643 105 714 99 818 122 977 211 71 40 143 99 143 118 0
27 -75 86 -141 111 -37 15 -87 41 -111 58 -24 18 -69 45 -101 61 -31 16 -57
32 -57 37 0 13 89 -18 133 -47 36 -24 44 -25 72 -15 17 6 44 11 58 11 22 0 29
-6 33 -29 8 -37 29 -57 80 -74 23 -8 48 -27 61 -45 l21 -32 139 123 c116 104
141 131 151 165 7 23 37 77 67 121 29 43 58 97 64 119 7 24 19 43 30 47 10 3
47 30 82 61 35 31 107 88 161 127 94 69 96 71 81 94 -14 21 -14 28 6 75 11 28
21 71 21 96 0 42 -4 50 -55 99 -50 49 -53 53 -34 63 42 23 108 -44 130 -133
11 -44 9 -52 -15 -107 -25 -56 -27 -88 -5 -75 5 4 24 30 43 58 18 29 62 86 98
128 81 95 104 133 137 223 20 54 32 72 48 74 30 4 88 93 181 277 66 130 94
175 153 240 85 95 148 188 194 289 40 87 75 209 75 258 0 89 -61 200 -133 242
-64 37 -141 49 -270 41 -234 -13 -315 -26 -622 -100 -141 -34 -208 -45 -310
-50 -118 -7 -236 -21 -192 -24 29 -2 77 -30 77 -46 0 -21 -9 -19 -135 17 -95
28 -125 32 -220 32 -132 -1 -187 -18 -307 -100 -44 -30 -106 -68 -138 -84 -32
-16 -67 -41 -78 -55 -11 -14 -23 -25 -26 -25 -9 0 15 52 41 87 13 17 23 33 23
36 0 2 -107 -13 -237 -34 -271 -42 -487 -54 -1143 -64 -206 -3 -427 -10 -490
-16 -63 -5 -194 -12 -290 -16 -156 -5 -178 -4 -193 11 -24 25 -46 104 -68 256
-11 74 -24 153 -30 175 -29 105 -120 263 -218 374 -120 138 -310 259 -421 268
-78 7 -136 -25 -169 -91 l-24 -48 17 -161 c10 -89 22 -193 28 -232 5 -38 12
-101 15 -140 4 -68 3 -72 -46 -169 -64 -122 -127 -221 -197 -307 -76 -93 -72
-108 14 -65 71 35 226 77 262 70 16 -4 60 1 97 11 56 14 87 15 178 8 l110 -9
-52 -27 c-35 -18 -68 -27 -99 -27 -44 0 -323 -56 -820 -165 -197 -44 -855
-143 -1164 -177 -169 -18 -855 -18 -1000 0 -381 47 -706 133 -868 228 -92 55
-235 160 -279 206 -17 18 -52 69 -76 113 -84 153 -208 345 -223 345 -15 0 -18
-20 -14 -83 1 -27 -4 -45 -18 -60 -11 -12 -25 -41 -32 -65 -6 -24 -18 -46 -27
-49 -50 -20 -211 125 -317 285 -116 173 -238 508 -496 1357 -282 926 -323
1035 -577 1547 -200 403 -299 573 -396 675 -75 79 -121 100 -148 66z m143
-120 c28 -27 66 -73 86 -103 75 -118 172 -299 172 -321 -1 -23 -1 -23 -12 -4
-6 11 -26 36 -43 56 -18 20 -40 58 -50 85 -21 55 -100 177 -138 212 -15 15
-34 22 -49 20 -21 -3 -23 -8 -26 -71 -2 -50 3 -85 18 -128 24 -71 25 -133 4
-210 -16 -56 -16 -60 10 -149 14 -50 26 -100 26 -111 0 -11 13 -32 29 -47 27
-25 51 -83 51 -126 0 -31 -25 -2 -39 46 -9 28 -29 57 -58 84 -44 42 -45 43
-38 91 5 41 3 53 -16 77 l-22 28 22 119 22 118 -31 93 c-37 109 -48 200 -31
251 18 53 48 50 113 -10z m6345 -3023 c119 -54 233 -160 233 -217 0 -20 -5
-23 -41 -23 -22 0 -66 7 -96 16 -64 19 -106 14 -180 -22 -43 -21 -56 -23 -74
-14 -12 7 -42 15 -67 19 l-46 6 -19 63 c-33 110 -3 195 73 211 53 11 142 -5
217 -39z m-5912 -172 c115 -277 149 -340 248 -463 113 -140 316 -326 619 -568
161 -129 361 -289 443 -357 315 -257 700 -532 799 -569 29 -11 99 -39 157 -64
134 -57 558 -217 668 -251 265 -83 546 -138 940 -182 l154 -18 87 23 c77 20
95 21 142 12 40 -9 85 -9 174 0 65 6 151 8 189 4 50 -4 82 -2 112 9 35 12 49
12 90 1 l48 -13 -35 -15 c-23 -9 -130 -22 -305 -36 -148 -12 -274 -26 -278
-30 -6 -6 -5 -33 1 -66 15 -92 9 -101 -78 -107 -30 -3 -40 -11 -68 -53 -40
-60 -65 -72 -124 -58 -39 8 -49 6 -108 -23 -48 -23 -149 -51 -380 -103 -173
-40 -429 -103 -568 -141 -139 -39 -272 -70 -295 -70 -40 0 -47 4 -89 53 -56
65 -152 120 -194 111 -16 -3 -87 6 -157 21 -147 30 -257 34 -488 21 -86 -5
-168 -6 -182 -2 -33 8 -35 31 -6 62 23 25 38 87 64 264 9 63 18 117 20 119 3
2 46 -23 97 -56 132 -85 216 -130 283 -153 32 -11 60 -19 61 -17 2 2 -101 75
-229 162 -289 197 -364 252 -452 329 -147 129 -174 149 -181 132 -12 -32 8
-62 72 -109 81 -60 75 -71 -39 -75 -96 -4 -177 14 -284 63 -122 57 -149 101
-94 156 38 38 69 37 192 -3 160 -52 167 -29 37 113 -627 682 -1033 1288 -1114
1661 -9 40 -18 139 -21 220 -9 219 3 230 72 66z m-35 -488 c18 -47 57 -133 87
-193 29 -59 53 -116 53 -127 0 -19 -4 -20 -64 -14 -79 8 -173 -13 -302 -67
-153 -65 -476 -177 -601 -208 -225 -57 -543 -100 -543 -73 0 16 81 40 246 72
385 75 505 106 609 154 92 44 111 66 130 155 8 40 23 86 32 101 9 17 54 51
105 81 93 54 140 100 179 174 13 24 26 41 30 37 3 -4 21 -45 39 -92z m9513
-101 c48 -37 60 -157 22 -216 -28 -43 -45 -29 -43 35 2 67 -17 108 -64 146
-32 26 -32 27 -14 41 28 21 69 19 99 -6z m-2462 -385 c12 -15 10 -20 -16 -38
-17 -11 -65 -55 -107 -98 -61 -61 -78 -84 -78 -107 0 -15 -13 -46 -28 -67 -32
-44 -76 -147 -91 -214 -5 -25 -15 -97 -21 -160 -6 -63 -22 -180 -37 -260 -36
-206 -35 -270 10 -401 21 -59 37 -114 37 -123 0 -24 -43 -20 -72 7 -21 20 -26
36 -33 108 -12 129 -6 282 16 406 16 88 17 117 8 134 -7 14 -9 51 -4 113 8
110 44 223 119 379 47 97 69 127 158 224 57 62 108 113 114 113 6 0 18 -7 25
-16z m-376 -47 c-162 -136 -257 -247 -311 -362 -38 -82 -66 -183 -53 -191 10
-6 5 -50 -19 -169 -11 -53 -18 -157 -22 -305 -4 -163 -9 -232 -19 -249 -17
-31 -7 -130 20 -182 22 -45 24 -69 6 -69 -38 0 -67 88 -67 204 0 31 -6 56 -16
67 -13 14 -13 21 -3 40 8 16 11 97 10 289 -1 231 1 279 19 364 54 261 170 426
404 573 28 17 62 32 76 32 23 0 20 -4 -25 -42z m186 26 c-5 -10 -47 -60 -93
-112 -159 -180 -182 -218 -253 -426 -25 -73 -28 -99 -36 -305 -5 -124 -15
-268 -24 -320 -21 -133 -19 -153 17 -258 17 -50 29 -95 25 -98 -3 -4 -21 2
-39 13 -25 14 -35 29 -41 58 -5 22 -20 77 -34 121 -29 91 -29 66 11 369 14
105 26 210 26 235 0 62 62 304 92 365 36 71 89 138 207 265 77 82 109 110 127
110 21 0 23 -3 15 -17z m-455 -56 c2 -7 -22 -40 -54 -73 -122 -125 -197 -314
-236 -592 -11 -78 -12 -125 -4 -211 9 -98 7 -123 -12 -223 -24 -126 -23 -175
9 -303 25 -98 25 -95 1 -95 -60 0 -100 242 -80 487 46 583 112 810 283 971 55
52 83 64 93 39z m674 -46 c0 -5 -33 -70 -74 -144 -44 -81 -89 -180 -111 -248
-36 -107 -37 -117 -32 -208 8 -160 -17 -253 -61 -224 -9 6 -15 17 -13 25 3 7
7 94 10 194 l6 180 38 75 c22 41 66 128 99 194 33 66 70 130 81 143 20 22 57
30 57 13z m3557 -497 c-18 -35 -64 -80 -73 -71 -12 12 5 52 36 86 38 40 61 31
37 -15z m-1675 -99 c32 -12 52 -13 65 -7 10 6 51 12 91 13 68 4 74 2 85 -20
16 -33 66 -50 82 -27 16 21 20 20 59 -9 44 -34 201 -105 230 -105 14 0 55 -16
93 -36 47 -25 89 -39 135 -45 37 -5 86 -18 107 -29 22 -11 56 -20 76 -20 46 0
93 -23 127 -63 22 -26 28 -28 28 -13 0 10 -17 35 -37 56 -30 29 -49 39 -88 44
-40 6 -46 10 -31 18 34 19 101 0 141 -40 55 -55 59 -73 33 -156 -12 -39 -30
-78 -40 -88 -24 -22 -155 -71 -167 -63 -6 3 26 40 69 83 116 112 104 150 -18
60 -74 -55 -152 -85 -152 -59 0 4 25 47 56 94 30 48 53 91 49 97 -14 23 -48 7
-96 -44 -52 -56 -101 -86 -138 -86 -20 0 -21 1 -7 28 28 53 53 130 47 140 -3
5 -21 19 -40 30 l-35 21 -46 -43 c-50 -47 -110 -83 -110 -67 0 6 6 35 14 65
20 74 13 90 -44 115 -61 26 -62 26 -91 -5 -31 -35 -99 -84 -114 -84 -9 0 -11
20 -7 74 4 74 4 74 -24 89 -61 30 -76 29 -129 -13 -92 -72 -96 -75 -105 -60
-5 7 -6 37 -3 65 l6 53 -43 4 c-37 3 -44 0 -58 -22 -23 -38 -74 -90 -88 -90
-16 0 -24 24 -24 71 0 21 -4 39 -10 39 -26 0 -99 -46 -114 -72 -20 -33 -28
-31 -57 22 -13 22 -26 40 -30 40 -5 0 -19 -16 -32 -35 l-24 -35 -23 25 c-13
14 -22 26 -19 28 37 29 76 48 134 66 57 17 88 20 170 16 55 -2 121 -11 147
-20z m414 -16 c27 -11 61 -27 76 -35 14 -7 45 -14 67 -14 52 0 97 -18 142 -57
46 -41 92 -63 129 -63 16 0 30 -5 30 -11 0 -23 -99 -1 -151 32 -27 17 -79 39
-117 48 -56 15 -132 53 -222 110 -25 16 -5 12 46 -10z m61 -385 c36 -14 73
-66 73 -101 0 -26 -30 -93 -42 -93 -4 0 -8 21 -8 48 0 27 -7 57 -16 70 -35 50
-109 65 -179 36 -20 -8 -49 -14 -64 -12 l-26 3 29 19 c75 52 156 62 233 30z
m-438 -80 c22 -8 42 -23 45 -31 5 -13 0 -15 -31 -9 -107 20 -115 19 -188 -20
-66 -34 -68 -35 -46 -10 28 29 134 86 162 86 10 0 36 -7 58 -16z m361 -79 c30
-32 33 -111 5 -131 -28 -21 -34 -18 -54 30 -11 24 -26 46 -35 49 -9 4 -45 0
-79 -8 -34 -8 -75 -15 -92 -14 -25 0 -14 9 65 49 111 57 154 63 190 25z m-954
-111 l104 -106 76 4 76 3 -6 -27 c-3 -16 -9 -41 -12 -57 -5 -22 1 -36 26 -65
18 -20 40 -36 49 -36 10 0 50 11 89 24 80 27 83 25 56 -39 -8 -21 -12 -41 -7
-45 25 -23 150 -90 166 -90 11 0 45 19 75 41 l55 42 -7 -62 c-9 -76 -14 -91
-32 -91 -8 0 -72 29 -142 64 -70 35 -172 83 -227 107 -97 42 -104 47 -223 169
-192 194 -255 270 -226 270 3 0 52 -48 110 -106z m-2554 -9 c3 -3 -5 -43 -18
-88 -13 -45 -24 -92 -24 -103 0 -28 -193 -224 -281 -287 -104 -74 -269 -172
-329 -195 -30 -12 -98 -38 -150 -57 -52 -20 -114 -43 -137 -53 -88 -34 -73 32
18 78 20 11 82 31 139 45 139 35 155 44 174 102 12 36 28 57 63 83 25 19 50
46 54 60 5 14 24 35 42 46 86 56 239 187 254 218 18 39 12 66 -15 66 -47 0
-58 55 -12 65 70 15 214 28 222 20z m3517 -281 c-7 -27 -23 -71 -37 -99 l-25
-50 24 20 c13 10 52 46 87 79 l62 60 0 -35 c0 -19 -7 -61 -15 -93 -9 -33 -14
-60 -12 -62 5 -5 77 44 110 74 l27 26 -6 -34 c-4 -19 -11 -43 -16 -53 -15 -29
-5 -29 35 -1 20 13 37 21 37 16 0 -5 -34 -45 -76 -90 -72 -78 -77 -81 -97 -67
-12 8 -32 15 -45 15 -23 0 -24 2 -20 55 3 30 4 55 3 55 -1 0 -29 -11 -63 -25
-48 -20 -67 -23 -87 -15 -15 6 -40 10 -56 10 -38 0 -50 29 -35 87 10 38 19 47
103 103 51 33 95 65 98 71 14 21 16 0 4 -47z m-1 -279 c-1 -53 -20 -59 -64
-21 l-28 23 44 21 c25 11 46 21 47 21 0 1 1 -19 1 -44z"/>
<path d="M10910 4653 c-8 -3 -21 -14 -28 -25 -7 -10 -21 -18 -31 -18 -23 0
-51 -60 -51 -109 0 -68 54 -90 128 -52 99 51 138 141 80 188 -17 14 -78 24
-98 16z"/>
<path d="M11613 4499 c-38 -30 -63 -59 -63 -70 0 -10 1 -19 3 -19 1 0 24 -7
50 -15 l49 -15 -7 39 c-6 34 -2 43 24 74 17 19 31 40 31 46 0 21 -26 10 -87
-40z"/>
</g>
</svg>
